<svg width="11" height="16" viewBox="0 0 11 16" fill="none" xmlns="http://www.w3.org/2000/svg">
<path d="M5.5 0C8.53268 0 11 2.49492 11 5.56152C11 9.41592 5.49459 16 5.49459 16C5.49459 16 0 9.22637 0 5.56152C0 2.49492 2.46723 0 5.5 0ZM3.84054 7.18994C4.29811 7.65254 4.89901 7.88389 5.5 7.88389C6.1009 7.88389 6.70198 7.65254 7.15937 7.18994C8.07442 6.26475 8.07442 4.75928 7.15937 3.83398C6.71628 3.38574 6.12687 3.13887 5.5 3.13887C4.87313 3.13887 4.28382 3.38584 3.84054 3.83398C2.92548 4.75928 2.92548 6.26475 3.84054 7.18994Z" fill="#92CA18"/>
</svg>
