<svg width="291" height="185" viewBox="0 0 291 185" fill="none" xmlns="http://www.w3.org/2000/svg">
<path d="M117.546 16.687L61.469 0.98093C60.6847 0.760914 59.8473 0.760914 59.0621 0.98093L2.98488 16.687C1.21322 17.1831 0 18.7055 0 20.4323V78.0212C0 85.5116 3.24791 93.1793 9.65354 100.811C14.5461 106.64 21.3144 112.493 29.7709 118.208C43.9769 127.809 57.9654 133.698 58.554 133.944C59.0984 134.171 59.6817 134.285 60.2653 134.285C60.8486 134.285 61.4322 134.172 61.9767 133.944C62.5653 133.698 76.5534 127.809 90.7594 118.208C99.2156 112.493 105.984 106.64 110.877 100.811C117.282 93.1796 120.53 85.5119 120.53 78.0212V20.4323C120.53 18.7055 119.317 17.1831 117.546 16.687ZM112.154 78.0212C112.154 91.2774 97.9069 103.707 85.9554 111.801C75.2405 119.056 64.3741 124.205 60.2656 126.054C56.1571 124.205 45.2904 119.056 34.5755 111.801C22.6237 103.707 8.37666 91.2774 8.37666 78.0212V23.3415L60.2653 8.80844L112.154 23.3415V78.0212Z" fill="white"/>
<path d="M112.154 78.0212C112.154 91.2774 97.9069 103.707 85.9554 111.801C75.2405 119.056 64.3741 124.205 60.2656 126.054C56.1571 124.205 45.2904 119.056 34.5755 111.801C22.6237 103.707 8.37666 91.2774 8.37666 78.0212V23.3415L60.2653 8.80844L112.154 23.3415V78.0212Z" fill="white"/>
<path d="M81.2376 134.355H87.0231L89.7049 147.417L92.5976 134.355H98.1721L98.5939 156.819H94.7671L94.3151 141.871L91.4827 156.819H88.0777L85.0645 141.76L84.7029 156.819H80.8158L81.2376 134.355Z" fill="white"/>
<path d="M109.113 157.152C106.482 157.152 104.603 156.533 103.478 155.294C102.354 154.036 101.791 152.188 101.791 149.747V141.399C101.791 138.958 102.354 137.128 103.478 135.908C104.603 134.669 106.482 134.05 109.113 134.05C111.765 134.05 113.653 134.669 114.778 135.908C115.923 137.147 116.496 138.977 116.496 141.399V149.747C116.496 152.188 115.923 154.036 114.778 155.294C113.653 156.533 111.765 157.152 109.113 157.152ZM109.113 153.63C109.877 153.63 110.379 153.399 110.62 152.936C110.861 152.456 110.981 151.809 110.981 150.995V140.179C110.981 139.347 110.861 138.7 110.62 138.237C110.379 137.775 109.877 137.544 109.113 137.544C108.39 137.544 107.908 137.784 107.667 138.265C107.426 138.727 107.305 139.365 107.305 140.179V150.995C107.305 151.809 107.416 152.456 107.637 152.936C107.858 153.399 108.35 153.63 109.113 153.63Z" fill="white"/>
<path d="M119.778 134.355H123.575L128.577 145.171V134.355H133.037V156.819H129.391L124.389 145.171V156.819H119.778V134.355Z" fill="white"/>
<path d="M136.669 134.355H147.637V137.738H142.063V143.313H146.311V146.752H142.063V153.463H147.697V156.819H136.669V134.355Z" fill="white"/>
<path d="M153.22 147.639L148.579 134.355H153.672L155.992 141.455L158.071 134.355H162.953L158.403 147.639V156.819H153.22V147.639Z" fill="white"/>
<path d="M165.006 134.355H171.364C172.951 134.355 174.297 134.512 175.402 134.826C176.527 135.122 177.431 135.704 178.114 136.573C178.797 137.442 179.139 138.663 179.139 140.234C179.139 141.565 178.827 142.601 178.205 143.34C177.582 144.08 176.698 144.551 175.553 144.755C176.959 144.921 178.034 145.467 178.777 146.391C179.52 147.316 179.892 148.573 179.892 150.163C179.892 154.6 177.431 156.819 172.509 156.819H165.006V134.355ZM171.455 143.34C172.6 143.34 173.373 143.1 173.775 142.619C174.197 142.139 174.408 141.39 174.408 140.373C174.408 139.485 174.147 138.82 173.624 138.376C173.102 137.914 172.339 137.683 171.334 137.683H170.4V143.34H171.455ZM171.545 153.352C172.69 153.352 173.494 153.094 173.956 152.576C174.438 152.04 174.679 151.208 174.679 150.08C174.679 148.804 174.438 147.907 173.956 147.39C173.494 146.872 172.68 146.613 171.515 146.613H170.4V153.352H171.545Z" fill="white"/>
<path d="M186.097 134.355H192.244L196.794 156.819H191.823L191.009 152.077H187.423L186.579 156.819H181.487L186.097 134.355ZM190.497 149.109L189.201 140.345L187.905 149.109H190.497Z" fill="white"/>
<path d="M205.867 157.152C203.215 157.152 201.327 156.514 200.202 155.238C199.097 153.944 198.545 152.086 198.545 149.664V141.565C198.545 139.088 199.097 137.22 200.202 135.963C201.307 134.687 203.195 134.05 205.867 134.05C208.418 134.05 210.226 134.613 211.291 135.741C212.355 136.869 212.888 138.468 212.888 140.539V142.481H207.615V140.234C207.615 139.365 207.514 138.7 207.313 138.237C207.112 137.775 206.63 137.544 205.867 137.544C205.104 137.544 204.601 137.794 204.36 138.293C204.119 138.774 203.999 139.448 203.999 140.317V150.884C203.999 151.772 204.119 152.456 204.36 152.936C204.621 153.399 205.124 153.63 205.867 153.63C206.61 153.63 207.082 153.399 207.283 152.936C207.504 152.456 207.615 151.772 207.615 150.884V148.527H212.888V150.468C212.888 152.576 212.355 154.221 211.291 155.405C210.226 156.569 208.418 157.152 205.867 157.152Z" fill="white"/>
<path d="M215.855 134.355H221.249V143.535L225.347 134.355H230.62L226.1 144.505L230.831 156.819H225.347L221.821 146.89L221.249 147.778V156.819H215.855V134.355Z" fill="white"/>
<path d="M87.2641 184.886C84.8535 184.886 83.136 184.211 82.1115 182.861C81.087 181.512 80.5747 179.598 80.5747 177.12V169.577C80.5747 167.044 81.1271 165.112 82.232 163.78C83.3569 162.449 85.2452 161.783 87.8969 161.783C90.4481 161.783 92.2762 162.357 93.381 163.503C94.4859 164.649 95.0383 166.267 95.0383 168.356V169.799H89.7651V167.968C89.7651 167.081 89.6546 166.415 89.4337 165.971C89.2127 165.509 88.7205 165.278 87.9572 165.278C87.1737 165.278 86.6615 165.528 86.4204 166.027C86.1994 166.526 86.089 167.219 86.089 168.107V178.507C86.089 179.394 86.2296 180.097 86.5108 180.615C86.8121 181.114 87.3445 181.364 88.1078 181.364C89.514 181.364 90.2171 180.393 90.2171 178.452V175.817H88.0174V172.905H95.0684V184.553H91.5128L91.2115 182.695C90.4481 184.155 89.1323 184.886 87.2641 184.886Z" fill="white"/>
<path d="M105.495 184.886C103.667 184.886 102.221 184.618 101.156 184.082C100.091 183.527 99.3382 182.723 98.8962 181.669C98.4744 180.596 98.2634 179.237 98.2634 177.592V162.089H103.597V178.341C103.597 179.247 103.717 179.968 103.958 180.504C104.22 181.04 104.732 181.308 105.495 181.308C106.259 181.308 106.761 181.04 107.002 180.504C107.243 179.968 107.363 179.247 107.363 178.341V162.089H112.727V177.592C112.727 179.237 112.506 180.596 112.064 181.669C111.622 182.723 110.869 183.527 109.804 184.082C108.76 184.618 107.323 184.886 105.495 184.886Z" fill="white"/>
<path d="M119.359 162.089H125.506L130.056 184.553H125.084L124.27 179.81H120.684L119.841 184.553H114.748L119.359 162.089ZM123.758 176.843L122.462 168.079L121.166 176.843H123.758Z" fill="white"/>
<path d="M132.52 162.089H139.239C141.911 162.089 143.93 162.523 145.296 163.392C146.662 164.261 147.345 165.805 147.345 168.024C147.345 169.521 147.134 170.714 146.712 171.601C146.29 172.489 145.507 173.182 144.362 173.681L147.707 184.553H142.132L139.45 174.486H137.914V184.553H132.52V162.089ZM139.42 171.629C140.505 171.629 141.258 171.37 141.68 170.852C142.122 170.316 142.343 169.521 142.343 168.467C142.343 167.45 142.142 166.692 141.74 166.193C141.339 165.675 140.646 165.417 139.661 165.417H137.914V171.629H139.42Z" fill="white"/>
<path d="M154.023 162.089H160.17L164.72 184.553H159.748L158.934 179.81H155.349L154.505 184.553H149.412L154.023 162.089ZM158.422 176.843L157.126 168.079L155.831 176.843H158.422Z" fill="white"/>
<path d="M167.184 162.089H170.981L175.983 172.905V162.089H180.442V184.553H176.796L171.794 172.905V184.553H167.184V162.089Z" fill="white"/>
<path d="M186.274 165.777H182.598V162.089H195.344V165.777H191.698V184.553H186.274V165.777Z" fill="white"/>
<path d="M197.493 162.089H208.461V165.472H202.887V171.047H207.135V174.486H202.887V181.197H208.522V184.553H197.493V162.089Z" fill="white"/>
<path d="M210.97 162.089H221.939V165.472H216.364V171.047H220.613V174.486H216.364V181.197H221.999V184.553H210.97V162.089Z" fill="white"/>
<path d="M81.7045 70.22C81.0416 70.5528 79.2939 71.2739 76.4615 72.3832C75.9794 72.5496 75.226 72.827 74.2015 73.2152C73.177 73.6035 72.3333 73.9641 71.6704 74.2969V63.9799C78.9022 60.5409 83.3317 58.0448 84.9588 56.4917H96.8009V123.885H81.7045V70.22Z" fill="#92CA18"/>
<path d="M129.676 125.133C123.228 125.133 118.286 123.386 114.851 119.891C111.416 116.397 109.698 111.71 109.698 105.83V75.2953C109.698 69.1384 111.355 64.3127 114.67 60.8182C118.045 57.2683 123.047 55.4933 129.676 55.4933C136.305 55.4933 141.277 57.2683 144.592 60.8182C147.906 64.3127 149.563 69.1384 149.563 75.2953V105.83C149.563 111.654 147.816 116.341 144.32 119.891C140.885 123.386 136.004 125.133 129.676 125.133ZM129.676 112.736C131.544 112.736 132.749 112.015 133.292 110.573C133.895 109.131 134.196 107.439 134.196 105.498V75.6281C134.196 73.4094 133.925 71.579 133.382 70.1368C132.9 68.6392 131.665 67.8903 129.676 67.8903C127.687 67.8903 126.422 68.6114 125.879 70.0536C125.397 71.4957 125.156 73.3539 125.156 75.6281V105.498C125.156 110.323 126.663 112.736 129.676 112.736Z" fill="#92CA18"/>
<path d="M179.377 125.133C172.929 125.133 167.987 123.386 164.552 119.891C161.117 116.397 159.399 111.71 159.399 105.83V75.2953C159.399 69.1384 161.056 64.3127 164.371 60.8182C167.746 57.2683 172.748 55.4933 179.377 55.4933C186.006 55.4933 190.978 57.2683 194.293 60.8182C197.607 64.3127 199.264 69.1384 199.264 75.2953V105.83C199.264 111.654 197.517 116.341 194.021 119.891C190.586 123.386 185.705 125.133 179.377 125.133ZM179.377 112.736C181.245 112.736 182.45 112.015 182.993 110.573C183.596 109.131 183.897 107.439 183.897 105.498V75.6281C183.897 73.4094 183.626 71.579 183.083 70.1368C182.601 68.6392 181.366 67.8903 179.377 67.8903C177.388 67.8903 176.123 68.6114 175.58 70.0536C175.098 71.4957 174.857 73.3539 174.857 75.6281V105.498C174.857 110.323 176.364 112.736 179.377 112.736Z" fill="#92CA18"/>
<path d="M225.372 94.7645C219.285 94.7645 214.916 93.3223 212.264 90.438C209.612 87.5537 208.287 83.0331 208.287 76.8761V73.8809C208.287 67.6685 209.552 63.2033 212.083 60.4854C214.675 57.7675 219.104 56.4085 225.372 56.4085C231.639 56.4085 236.069 57.7675 238.66 60.4854C241.251 63.1478 242.547 67.5575 242.547 73.7145V77.0425C242.547 83.144 241.221 87.6369 238.57 90.5212C235.918 93.3501 231.519 94.7645 225.372 94.7645ZM256.74 56.4917H264.875L242.457 123.885H234.231L256.74 56.4917ZM225.372 86.1115C226.878 86.1115 227.993 85.751 228.716 85.0299C229.44 84.3088 229.892 83.3104 230.072 82.0346C230.253 80.7034 230.343 78.8175 230.343 76.3769V74.2969C230.343 71.8008 230.253 69.9704 230.072 68.8056C229.892 67.5853 229.44 66.67 228.716 66.0599C228.053 65.4498 226.939 65.1447 225.372 65.1447C223.805 65.1447 222.66 65.4498 221.937 66.0599C221.274 66.67 220.852 67.5853 220.671 68.8056C220.49 69.9704 220.4 71.7731 220.4 74.2137V76.4601C220.4 80.0101 220.701 82.5061 221.304 83.9483C221.906 85.3904 223.262 86.1115 225.372 86.1115ZM273.825 123.968C267.738 123.968 263.369 122.526 260.717 119.642C258.126 116.757 256.83 112.237 256.83 106.08V103.085C256.83 96.8723 258.096 92.4071 260.627 89.6892C263.218 86.9713 267.617 85.6123 273.825 85.6123C280.092 85.6123 284.522 86.9713 287.113 89.6892C289.705 92.3516 291 96.7613 291 102.918V106.163C291 112.265 289.674 116.757 287.023 119.642C284.371 122.526 279.972 123.968 273.825 123.968ZM273.825 115.315C275.331 115.315 276.446 114.955 277.169 114.234C277.893 113.513 278.345 112.514 278.525 111.238C278.706 109.907 278.797 108.049 278.797 105.664V103.417C278.797 100.921 278.706 99.091 278.525 97.9262C278.345 96.7613 277.893 95.8738 277.169 95.2637C276.507 94.6536 275.392 94.3485 273.825 94.3485C272.258 94.3485 271.113 94.6536 270.39 95.2637C269.727 95.8738 269.305 96.7891 269.124 98.0094C268.943 99.1742 268.853 100.977 268.853 103.417V105.664C268.853 109.214 269.154 111.71 269.757 113.152C270.359 114.594 271.715 115.315 273.825 115.315Z" fill="#92CA18"/>
</svg>
