<svg width="155" height="107" viewBox="0 0 155 107" fill="none" xmlns="http://www.w3.org/2000/svg">
<path d="M62.4154 9.15623L32.6393 0.0951973C32.2228 -0.0317324 31.7782 -0.0317324 31.3613 0.0951973L1.58494 9.15623C0.644205 9.44243 0 10.3207 0 11.3169V44.5406C0 48.8619 1.7246 53.2855 5.12591 57.6885C7.72379 61.0512 11.3177 64.4279 15.808 67.725C23.3512 73.2635 30.7789 76.6612 31.0914 76.803C31.3806 76.9343 31.6903 77 32.0001 77C32.3099 77 32.6197 76.9344 32.9089 76.803C33.2214 76.6612 40.6489 73.2635 48.1922 67.725C52.6823 64.4279 56.2762 61.0512 58.8741 57.6885C62.2754 53.2857 64 48.8621 64 44.5406V11.3169C64.0002 10.3207 63.3561 9.44243 62.4154 9.15623ZM59.5522 44.5406C59.5522 52.1882 51.9874 59.3592 45.6413 64.0284C39.9518 68.2142 34.1818 71.1844 32.0003 72.2514C29.8188 71.1844 24.0486 68.2142 18.3592 64.0284C12.0129 59.3592 4.4479 52.1882 4.4479 44.5406V12.9953L32.0001 4.61098L59.5522 12.9953V44.5406Z" fill="white"/>
<path d="M59.5522 44.5406C59.5522 52.1882 51.9874 59.3592 45.6413 64.0284C39.9518 68.2142 34.1818 71.1844 32.0003 72.2514C29.8188 71.1844 24.0486 68.2142 18.3592 64.0284C12.0129 59.3592 4.4479 52.1882 4.4479 44.5406V12.9953L32.0001 4.61098L59.5522 12.9953V44.5406Z" fill="white"/>
<path d="M43.1361 77.04H46.2081L47.6321 84.576L49.1681 77.04H52.1281L52.3521 90H50.3201L50.0801 81.376L48.5761 90H46.7681L45.1681 81.312L44.9761 90H42.9121L43.1361 77.04Z" fill="white"/>
<path d="M57.9377 90.192C56.5403 90.192 55.543 89.8347 54.9457 89.12C54.3483 88.3947 54.0497 87.328 54.0497 85.92V81.104C54.0497 79.696 54.3483 78.64 54.9457 77.936C55.543 77.2213 56.5403 76.864 57.9377 76.864C59.3457 76.864 60.3483 77.2213 60.9457 77.936C61.5537 78.6507 61.8577 79.7067 61.8577 81.104V85.92C61.8577 87.328 61.5537 88.3947 60.9457 89.12C60.3483 89.8347 59.3457 90.192 57.9377 90.192ZM57.9377 88.16C58.343 88.16 58.6097 88.0267 58.7377 87.76C58.8657 87.4827 58.9297 87.1093 58.9297 86.64V80.4C58.9297 79.92 58.8657 79.5467 58.7377 79.28C58.6097 79.0133 58.343 78.88 57.9377 78.88C57.5537 78.88 57.2977 79.0187 57.1697 79.296C57.0417 79.5627 56.9777 79.9307 56.9777 80.4V86.64C56.9777 87.1093 57.0363 87.4827 57.1537 87.76C57.271 88.0267 57.5323 88.16 57.9377 88.16Z" fill="white"/>
<path d="M63.6007 77.04H65.6167L68.2727 83.28V77.04H70.6407V90H68.7047L66.0487 83.28V90H63.6007V77.04Z" fill="white"/>
<path d="M72.5694 77.04H78.3934V78.992H75.4334V82.208H77.6894V84.192H75.4334V88.064H78.4254V90H72.5694V77.04Z" fill="white"/>
<path d="M81.3577 84.704L78.8937 77.04H81.5977L82.8297 81.136L83.9337 77.04H86.5257L84.1097 84.704V90H81.3577V84.704Z" fill="white"/>
<path d="M87.6163 77.04H90.9923C91.835 77.04 92.5496 77.1307 93.1363 77.312C93.7336 77.4827 94.2136 77.8187 94.5763 78.32C94.939 78.8213 95.1203 79.5253 95.1203 80.432C95.1203 81.2 94.955 81.7973 94.6243 82.224C94.2936 82.6507 93.8243 82.9227 93.2163 83.04C93.963 83.136 94.5336 83.4507 94.9283 83.984C95.323 84.5173 95.5203 85.2427 95.5203 86.16C95.5203 88.72 94.2136 90 91.6003 90H87.6163V77.04ZM91.0403 82.224C91.6483 82.224 92.059 82.0853 92.2723 81.808C92.4963 81.5307 92.6083 81.0987 92.6083 80.512C92.6083 80 92.4696 79.616 92.1923 79.36C91.915 79.0933 91.5096 78.96 90.9763 78.96H90.4803V82.224H91.0403ZM91.0883 88C91.6963 88 92.123 87.8507 92.3683 87.552C92.6243 87.2427 92.7523 86.7627 92.7523 86.112C92.7523 85.376 92.6243 84.8587 92.3683 84.56C92.123 84.2613 91.691 84.112 91.0723 84.112H90.4803V88H91.0883Z" fill="white"/>
<path d="M98.8153 77.04H102.079L104.495 90H101.855L101.423 87.264H99.5193L99.0713 90H96.3673L98.8153 77.04ZM101.151 85.552L100.463 80.496L99.7753 85.552H101.151Z" fill="white"/>
<path d="M109.313 90.192C107.905 90.192 106.902 89.824 106.305 89.088C105.718 88.3413 105.425 87.2693 105.425 85.872V81.2C105.425 79.7707 105.718 78.6933 106.305 77.968C106.891 77.232 107.894 76.864 109.313 76.864C110.667 76.864 111.627 77.1893 112.193 77.84C112.758 78.4907 113.041 79.4133 113.041 80.608V81.728H110.241V80.432C110.241 79.9307 110.187 79.5467 110.081 79.28C109.974 79.0133 109.718 78.88 109.313 78.88C108.907 78.88 108.641 79.024 108.513 79.312C108.385 79.5893 108.321 79.9787 108.321 80.48V86.576C108.321 87.088 108.385 87.4827 108.513 87.76C108.651 88.0267 108.918 88.16 109.313 88.16C109.707 88.16 109.958 88.0267 110.065 87.76C110.182 87.4827 110.241 87.088 110.241 86.576V85.216H113.041V86.336C113.041 87.552 112.758 88.5013 112.193 89.184C111.627 89.856 110.667 90.192 109.313 90.192Z" fill="white"/>
<path d="M114.616 77.04H117.48V82.336L119.656 77.04H122.456L120.056 82.896L122.568 90H119.656L117.784 84.272L117.48 84.784V90H114.616V77.04Z" fill="white"/>
<path d="M46.3361 106.192C45.0561 106.192 44.1441 105.803 43.6001 105.024C43.0561 104.245 42.7841 103.141 42.7841 101.712V97.36C42.7841 95.8987 43.0774 94.784 43.6641 94.016C44.2614 93.248 45.2641 92.864 46.6721 92.864C48.0267 92.864 48.9974 93.1947 49.5841 93.856C50.1707 94.5173 50.4641 95.4507 50.4641 96.656V97.488H47.6641V96.432C47.6641 95.92 47.6054 95.536 47.4881 95.28C47.3707 95.0133 47.1094 94.88 46.7041 94.88C46.2881 94.88 46.0161 95.024 45.8881 95.312C45.7707 95.6 45.7121 96 45.7121 96.512V102.512C45.7121 103.024 45.7867 103.429 45.9361 103.728C46.0961 104.016 46.3787 104.16 46.7841 104.16C47.5307 104.16 47.9041 103.6 47.9041 102.48V100.96H46.7361V99.28H50.4801V106H48.5921L48.4321 104.928C48.0267 105.771 47.3281 106.192 46.3361 106.192Z" fill="white"/>
<path d="M56.0166 106.192C55.0459 106.192 54.2779 106.037 53.7126 105.728C53.1472 105.408 52.7472 104.944 52.5126 104.336C52.2886 103.717 52.1766 102.933 52.1766 101.984V93.04H55.0086V102.416C55.0086 102.939 55.0726 103.355 55.2006 103.664C55.3392 103.973 55.6112 104.128 56.0166 104.128C56.4219 104.128 56.6886 103.973 56.8166 103.664C56.9446 103.355 57.0086 102.939 57.0086 102.416V93.04H59.8566V101.984C59.8566 102.933 59.7392 103.717 59.5046 104.336C59.2699 104.944 58.8699 105.408 58.3046 105.728C57.7499 106.037 56.9872 106.192 56.0166 106.192Z" fill="white"/>
<path d="M63.3778 93.04H66.6418L69.0578 106H66.4178L65.9858 103.264H64.0818L63.6338 106H60.9298L63.3778 93.04ZM65.7138 101.552L65.0258 96.496L64.3378 101.552H65.7138Z" fill="white"/>
<path d="M70.3663 93.04H73.9343C75.353 93.04 76.425 93.2907 77.1503 93.792C77.8756 94.2933 78.2383 95.184 78.2383 96.464C78.2383 97.328 78.1263 98.016 77.9023 98.528C77.6783 99.04 77.2623 99.44 76.6543 99.728L78.4303 106H75.4703L74.0463 100.192H73.2303V106H70.3663V93.04ZM74.0303 98.544C74.6063 98.544 75.0063 98.3947 75.2303 98.096C75.465 97.7867 75.5823 97.328 75.5823 96.72C75.5823 96.1333 75.4756 95.696 75.2623 95.408C75.049 95.1093 74.681 94.96 74.1583 94.96H73.2303V98.544H74.0303Z" fill="white"/>
<path d="M81.7841 93.04H85.0481L87.4641 106H84.8241L84.3921 103.264H82.4881L82.0401 106H79.3361L81.7841 93.04ZM84.1201 101.552L83.4321 96.496L82.7441 101.552H84.1201Z" fill="white"/>
<path d="M88.7726 93.04H90.7886L93.4446 99.28V93.04H95.8126V106H93.8766L91.2206 99.28V106H88.7726V93.04Z" fill="white"/>
<path d="M98.9093 95.168H96.9573V93.04H103.725V95.168H101.789V106H98.9093V95.168Z" fill="white"/>
<path d="M104.866 93.04H110.69V94.992H107.73V98.208H109.986V100.192H107.73V104.064H110.722V106H104.866V93.04Z" fill="white"/>
<path d="M112.023 93.04H117.847V94.992H114.887V98.208H117.143V100.192H114.887V104.064H117.879V106H112.023V93.04Z" fill="white"/>
<path d="M43.384 40.0399C43.032 40.2319 42.104 40.6479 40.6 41.2879C40.344 41.3839 39.944 41.5439 39.4 41.7679C38.856 41.9919 38.408 42.1999 38.056 42.3919V36.4399C41.896 34.4559 44.248 33.0159 45.112 32.1199H51.4V70.9999H43.384V40.0399Z" fill="#D8D8D8"/>
<path d="M68.8563 71.7199C65.4323 71.7199 62.8083 70.7119 60.9843 68.6959C59.1603 66.6799 58.2483 63.9759 58.2483 60.5839V42.9679C58.2483 39.4159 59.1283 36.6319 60.8883 34.6159C62.6803 32.5679 65.3363 31.5439 68.8563 31.5439C72.3763 31.5439 75.0163 32.5679 76.7763 34.6159C78.5363 36.6319 79.4163 39.4159 79.4163 42.9679V60.5839C79.4163 63.9439 78.4883 66.6479 76.6323 68.6959C74.8083 70.7119 72.2163 71.7199 68.8563 71.7199ZM68.8563 64.5679C69.8483 64.5679 70.4883 64.1519 70.7763 63.3199C71.0963 62.4879 71.2563 61.5119 71.2563 60.3919V43.1599C71.2563 41.8799 71.1123 40.8239 70.8243 39.9919C70.5683 39.1279 69.9123 38.6959 68.8563 38.6959C67.8003 38.6959 67.1283 39.1119 66.8403 39.9439C66.5843 40.7759 66.4563 41.8479 66.4563 43.1599V60.3919C66.4563 63.1759 67.2563 64.5679 68.8563 64.5679Z" fill="#D8D8D8"/>
<path d="M95.2469 71.7199C91.8229 71.7199 89.1989 70.7119 87.3749 68.6959C85.5509 66.6799 84.6389 63.9759 84.6389 60.5839V42.9679C84.6389 39.4159 85.5189 36.6319 87.2789 34.6159C89.0709 32.5679 91.7269 31.5439 95.2469 31.5439C98.7669 31.5439 101.407 32.5679 103.167 34.6159C104.927 36.6319 105.807 39.4159 105.807 42.9679V60.5839C105.807 63.9439 104.879 66.6479 103.023 68.6959C101.199 70.7119 98.6069 71.7199 95.2469 71.7199ZM95.2469 64.5679C96.2389 64.5679 96.8789 64.1519 97.1669 63.3199C97.4869 62.4879 97.6469 61.5119 97.6469 60.3919V43.1599C97.6469 41.8799 97.5029 40.8239 97.2149 39.9919C96.9589 39.1279 96.3029 38.6959 95.2469 38.6959C94.1909 38.6959 93.5189 39.1119 93.2309 39.9439C92.9749 40.7759 92.8469 41.8479 92.8469 43.1599V60.3919C92.8469 63.1759 93.6469 64.5679 95.2469 64.5679Z" fill="#D8D8D8"/>
<path d="M119.67 54.1999C116.438 54.1999 114.118 53.3679 112.71 51.7039C111.302 50.0399 110.598 47.4319 110.598 43.8799V42.1519C110.598 38.5679 111.27 35.9919 112.614 34.4239C113.99 32.8559 116.342 32.0719 119.67 32.0719C122.998 32.0719 125.35 32.8559 126.726 34.4239C128.102 35.9599 128.79 38.5039 128.79 42.0559V43.9759C128.79 47.4959 128.086 50.0879 126.678 51.7519C125.27 53.3839 122.934 54.1999 119.67 54.1999ZM136.326 32.1199H140.646L128.742 70.9999H124.374L136.326 32.1199ZM119.67 49.2079C120.47 49.2079 121.062 48.9999 121.446 48.5839C121.83 48.1679 122.07 47.5919 122.166 46.8559C122.262 46.0879 122.31 44.9999 122.31 43.5919V42.3919C122.31 40.9519 122.262 39.8959 122.166 39.2239C122.07 38.5199 121.83 37.9919 121.446 37.6399C121.094 37.2879 120.502 37.1119 119.67 37.1119C118.838 37.1119 118.23 37.2879 117.846 37.6399C117.494 37.9919 117.27 38.5199 117.174 39.2239C117.078 39.8959 117.03 40.9359 117.03 42.3439V43.6399C117.03 45.6879 117.19 47.1279 117.51 47.9599C117.83 48.7919 118.55 49.2079 119.67 49.2079ZM145.398 71.0479C142.166 71.0479 139.846 70.216 138.438 68.5519C137.062 66.8879 136.374 64.2799 136.374 60.7279V58.9999C136.374 55.4159 137.046 52.8399 138.39 51.2719C139.766 49.7039 142.102 48.9199 145.398 48.9199C148.726 48.9199 151.078 49.7039 152.454 51.2719C153.83 52.8079 154.518 55.3519 154.518 58.9039V60.7759C154.518 64.2959 153.814 66.8879 152.406 68.5519C150.998 70.216 148.662 71.0479 145.398 71.0479ZM145.398 66.0559C146.198 66.0559 146.79 65.8479 147.174 65.4319C147.558 65.0159 147.798 64.4399 147.894 63.7039C147.99 62.9359 148.038 61.8639 148.038 60.4879V59.1919C148.038 57.7519 147.99 56.6959 147.894 56.0239C147.798 55.3519 147.558 54.8399 147.174 54.4879C146.822 54.1359 146.23 53.9599 145.398 53.9599C144.566 53.9599 143.958 54.1359 143.574 54.4879C143.222 54.8399 142.998 55.3679 142.902 56.0719C142.806 56.7439 142.758 57.7839 142.758 59.1919V60.4879C142.758 62.5359 142.918 63.9759 143.238 64.8079C143.558 65.6399 144.278 66.0559 145.398 66.0559Z" fill="#D8D8D8"/>
</svg>
