<svg width="12" height="12" viewBox="0 0 12 12" fill="none" xmlns="http://www.w3.org/2000/svg">
<path d="M8.68836 0H3.3115C1.48554 0 0 1.48561 0 3.31157V8.68843C0 10.5145 1.48554 12 3.3115 12H8.68836C10.5145 12 12 10.5144 12 8.68843V3.31157C12.0001 1.48561 10.5145 0 8.68836 0ZM11.625 8.68843C11.625 10.2182 10.2182 11.625 8.68836 11.625H3.3115C1.5 11.625 0.375 10.125 0.375 8.625V3.1875C0.375 1.5 1.78174 0.375 3.3115 0.375H8.67026C10.3125 0.375 11.625 1.78171 11.625 3.31157V8.68843Z" fill="white"/>
<path fill-rule="evenodd" clip-rule="evenodd" d="M11.625 8.68843C11.625 10.2182 10.2182 11.625 8.68836 11.625H3.3115C1.5 11.625 0.375 10.125 0.375 8.625V3.1875C0.375 1.5 1.78174 0.375 3.3115 0.375H8.67026C10.3125 0.375 11.625 1.78171 11.625 3.31157V8.68843ZM2.9079 6.00014C2.9079 4.29513 4.29499 2.90805 6 2.90805C7.70501 2.90805 9.0921 4.29513 9.0921 6.00014C9.0921 7.70508 7.70501 9.0921 6 9.0921C4.29499 9.0921 2.9079 7.70508 2.9079 6.00014ZM9.375 3.375C9.78921 3.375 10.125 3.03921 10.125 2.625C10.125 2.21079 9.78921 1.875 9.375 1.875C8.96079 1.875 8.625 2.21079 8.625 2.625C8.625 3.03921 8.96079 3.375 9.375 3.375Z" fill="white"/>
</svg>
