<svg width="62" height="75" viewBox="0 0 62 75" fill="none" xmlns="http://www.w3.org/2000/svg">
<path d="M60.4649 8.91841L31.6193 0.0927246C31.2159 -0.0309082 30.7851 -0.0309082 30.3812 0.0927246L1.53541 8.91841C0.624074 9.19717 0 10.0526 0 11.0229V43.3837C0 47.5928 1.67071 51.9015 4.96573 56.1901C7.48242 59.4655 10.964 62.7545 15.314 65.9659C22.6215 71.3606 29.8171 74.67 30.1198 74.8081C30.3999 74.936 30.7 75 31.0001 75C31.3002 75 31.6004 74.9361 31.8805 74.8081C32.1832 74.67 39.3787 71.3606 46.6861 65.9659C51.036 62.7545 54.5176 59.4655 57.0343 56.1901C60.3293 51.9016 62 47.5929 62 43.3837V11.0229C62.0001 10.0526 61.3762 9.19717 60.4649 8.91841ZM57.6912 43.3837C57.6912 50.8327 50.3628 57.8174 44.215 62.3653C38.7033 66.4424 33.1137 69.3354 31.0003 70.3747C28.8869 69.3354 23.2971 66.4424 17.7854 62.3653C11.6375 57.8174 4.30891 50.8327 4.30891 43.3837V12.6577L31.0001 4.49121L57.6912 12.6577V43.3837Z" fill="white"/>
<path d="M57.6912 43.3837C57.6912 50.8327 50.3628 57.8174 44.215 62.3653C38.7033 66.4424 33.1137 69.3354 31.0003 70.3747C28.8869 69.3354 23.2971 66.4424 17.7854 62.3653C11.6375 57.8174 4.30891 50.8327 4.30891 43.3837V12.6577L31.0001 4.49121L57.6912 12.6577V43.3837Z" fill="white"/>
</svg>
