<svg width="68" height="62" viewBox="0 0 68 62" fill="none" xmlns="http://www.w3.org/2000/svg">
<path d="M57.8885 41.1204L57.8824 41.1299L52.1338 50.1571C53.3267 51.3599 54.0668 53.0175 54.0668 54.846C54.0668 58.5139 51.093 61.5 47.4333 61.5C43.7736 61.5 40.7998 58.5139 40.7998 54.846C40.7998 51.178 43.7736 48.1921 47.4333 48.1921C48.2129 48.1921 48.9617 48.3283 49.6575 48.5776L55.3589 39.6311C55.7664 38.9362 56.6583 38.6985 57.3573 39.1035L57.8885 41.1204ZM57.8885 41.1204L57.8941 41.1106M57.8885 41.1204L57.8941 41.1106M57.8941 41.1106C58.298 40.4085 58.0591 39.51 57.3574 39.1035L57.8941 41.1106ZM10.1173 20.87L10.1233 20.8605L15.8663 11.8429C14.6735 10.6401 13.9333 8.98251 13.9333 7.15398C13.9333 3.48613 16.9071 0.5 20.5668 0.5C24.2265 0.5 27.2003 3.48599 27.2003 7.15398C27.2003 10.822 24.2265 13.808 20.5668 13.808C19.7872 13.808 19.0384 13.6717 18.3426 13.4224L12.6466 22.3593C12.3737 22.8246 11.8837 23.0843 11.3813 23.0843C11.1317 23.0843 10.8787 23.0203 10.6483 22.8868L10.1173 20.87ZM10.1173 20.87L10.1117 20.8796M10.1173 20.87L10.1117 20.8796M10.1117 20.8796C9.70744 21.5818 9.94655 22.4804 10.6482 22.8868L10.1117 20.8796ZM13.325 46.4418L13.3291 46.4496L15.0874 46.5628L15.3381 46.9955C15.3381 46.9955 15.3381 46.9954 15.3381 46.9954C16.0368 46.5907 16.2767 45.6977 15.8795 44.9969L11.2375 36.2232C12.7759 35.0046 13.7668 33.1167 13.7668 30.9999C13.7668 27.3321 10.7931 24.346 7.13336 24.346C3.47365 24.346 0.5 27.3321 0.5 30.9999C0.5 34.6678 3.47379 37.6539 7.13349 37.6539C7.63184 37.6539 8.11701 37.5974 8.58367 37.4921L13.325 46.4418ZM54.6985 15.5988L54.6944 15.5911L54.6901 15.5835C54.2854 14.8802 53.3877 14.6382 52.6853 15.0452C51.9867 15.4499 51.7467 16.3429 52.1439 17.0437L56.7626 25.7767C55.2242 26.9954 54.2332 28.8832 54.2332 30.9999C54.2332 34.6678 57.2069 37.6539 60.8666 37.6539C64.5264 37.6539 67.5 34.6678 67.5 30.9999C67.5 27.3321 64.5262 24.346 60.8665 24.346C60.3681 24.346 59.8829 24.4024 59.4163 24.5078L54.6985 15.5988ZM47.4332 58.5598C45.3951 58.5598 43.7333 56.8949 43.7333 54.8459C43.7333 52.7969 45.3951 51.132 47.4332 51.132C49.4713 51.132 51.1331 52.7968 51.1331 54.8459C51.1332 56.8949 49.4714 58.5598 47.4332 58.5598ZM37.1333 53.3759H27.0361C26.3674 50.4129 23.7231 48.1919 20.5667 48.1919C16.907 48.1919 13.9332 51.1779 13.9332 54.8459C13.9332 58.5137 16.907 61.4999 20.5667 61.4999C23.7231 61.4999 26.3674 59.2789 27.0361 56.3159H37.1333C37.9449 56.3159 38.6 55.6562 38.6 54.8459C38.6 54.0357 37.9451 53.3759 37.1333 53.3759ZM20.5668 58.5598C18.5287 58.5598 16.8669 56.8949 16.8669 54.8459C16.8669 52.7969 18.5287 51.132 20.5668 51.132C22.6049 51.132 24.2667 52.7968 24.2667 54.8459C24.2666 56.8949 22.6048 58.5598 20.5668 58.5598ZM3.43359 30.9999C3.43359 28.951 5.0954 27.286 7.13349 27.286C9.17156 27.286 10.8333 28.951 10.8333 30.9999C10.8333 33.0489 9.17145 34.7139 7.13336 34.7139C5.09529 34.7139 3.43359 33.0489 3.43359 30.9999ZM20.5668 3.44005C22.6049 3.44005 24.2667 5.10501 24.2667 7.15398C24.2667 9.20294 22.6049 10.8679 20.5668 10.8679C18.5287 10.8679 16.8669 9.20306 16.8669 7.15398C16.8669 5.10488 18.5286 3.44005 20.5668 3.44005ZM30.8668 8.624H40.9639C41.6326 11.587 44.2769 13.808 47.4333 13.808C51.093 13.808 54.0668 10.822 54.0668 7.15398C54.0668 3.48599 51.093 0.5 47.4333 0.5C44.2769 0.5 41.6326 2.72099 40.9639 5.68395H30.8668C30.0551 5.68395 29.4 6.34369 29.4 7.15398C29.4 7.96421 30.0549 8.624 30.8668 8.624ZM47.4332 3.44005C49.4713 3.44005 51.1331 5.10501 51.1331 7.15398C51.1331 9.20294 49.4713 10.8679 47.4332 10.8679C45.3951 10.8679 43.7333 9.20306 43.7333 7.15398C43.7333 5.1049 45.3952 3.44005 47.4332 3.44005ZM60.8665 34.7139C58.8284 34.7139 57.1666 33.049 57.1666 30.9999C57.1666 28.9509 58.8284 27.286 60.8665 27.286C62.9046 27.286 64.5664 28.951 64.5664 30.9999C64.5664 33.0489 62.9046 34.7139 60.8665 34.7139Z" fill="#92CA18" stroke="#92CA18"/>
</svg>
