<svg width="65" height="42" viewBox="0 0 65 42" fill="none" xmlns="http://www.w3.org/2000/svg">
<path d="M59.2871 3.81818C58.5442 3.81818 57.834 3.96111 57.1824 4.22087C56.5209 1.79136 54.3001 0 51.6699 0C48.5198 0 45.957 2.56925 45.957 5.72727V15.2727H19.043V5.72727C19.043 2.56925 16.4802 0 13.3301 0C10.6999 0 8.47907 1.79136 7.81765 4.22087C7.166 3.96111 6.45582 3.81818 5.71289 3.81818C2.5628 3.81818 0 6.38744 0 9.54545V32.4545C0 35.6126 2.5628 38.1818 5.71289 38.1818C6.45582 38.1818 7.166 38.0389 7.81765 37.7791C8.47907 40.2086 10.6999 42 13.3301 42C16.4802 42 19.043 39.4307 19.043 36.2727V26.7273H45.957V36.2727C45.957 39.4307 48.5198 42 51.6699 42C54.3001 42 56.5209 40.2086 57.1824 37.7791C57.834 38.0389 58.5442 38.1818 59.2871 38.1818C62.4372 38.1818 65 35.6126 65 32.4545V9.54545C65 6.38744 62.4372 3.81818 59.2871 3.81818ZM15.2344 36.2727C15.2344 37.3254 14.3801 38.1818 13.3301 38.1818C12.28 38.1818 11.4258 37.3254 11.4258 36.2727V32.4545C11.4258 31.4002 10.5732 30.5455 9.52148 30.5455C8.4698 30.5455 7.61719 31.4002 7.61719 32.4545C7.61719 33.5072 6.76292 34.3636 5.71289 34.3636C4.66286 34.3636 3.80859 33.5072 3.80859 32.4545V9.54545C3.80859 8.49278 4.66286 7.63636 5.71289 7.63636C6.76292 7.63636 7.61719 8.49278 7.61719 9.54545C7.61719 10.5998 8.4698 11.4545 9.52148 11.4545C10.5732 11.4545 11.4258 10.5998 11.4258 9.54545V5.72727C11.4258 4.6746 12.28 3.81818 13.3301 3.81818C14.3801 3.81818 15.2344 4.6746 15.2344 5.72727V36.2727ZM19.043 22.9091V19.0909H45.957V22.9091H19.043ZM61.1914 32.4545C61.1914 33.5072 60.3371 34.3636 59.2871 34.3636C58.2371 34.3636 57.3828 33.5072 57.3828 32.4545C57.3828 31.4002 56.5302 30.5455 55.4785 30.5455C54.4268 30.5455 53.5742 31.4002 53.5742 32.4545V36.2727C53.5742 37.3254 52.72 38.1818 51.6699 38.1818C50.6199 38.1818 49.7656 37.3254 49.7656 36.2727V5.72727C49.7656 4.6746 50.6199 3.81818 51.6699 3.81818C52.72 3.81818 53.5742 4.6746 53.5742 5.72727V9.54545C53.5742 10.5998 54.4268 11.4545 55.4785 11.4545C56.5302 11.4545 57.3828 10.5998 57.3828 9.54545C57.3828 8.49278 58.2371 7.63636 59.2871 7.63636C60.3371 7.63636 61.1914 8.49278 61.1914 9.54545V32.4545Z" fill="#92CA18"/>
</svg>
