<svg width="65" height="67" viewBox="0 0 65 67" fill="none" xmlns="http://www.w3.org/2000/svg">
<path d="M20.6106 22.2971L15.5323 27.3849L13.6602 25.2637C12.9466 24.455 11.721 24.3843 10.922 25.1067C10.123 25.8277 10.0545 27.0696 10.7668 27.8783L13.999 31.5423C14.7372 32.3785 16.021 32.4204 16.8109 31.6287L23.3398 25.0857C24.1 24.3241 24.1064 23.081 23.3527 22.3102C22.599 21.5395 21.3721 21.5342 20.6106 22.2971Z" fill="#92CA18"/>
<path d="M28.8913 30.0139H39.8805C40.9523 30.0139 41.8198 29.1358 41.8198 28.051C41.8198 26.9675 40.9523 26.0881 39.8805 26.0881H28.8913C27.8208 26.0881 26.952 26.9675 26.952 28.051C26.952 29.1358 27.8208 30.0139 28.8913 30.0139Z" fill="#92CA18"/>
<path d="M20.6106 34.6751L15.5323 39.7642L13.6602 37.6417C12.9466 36.833 11.721 36.7623 10.922 37.4847C10.123 38.207 10.0545 39.4476 10.7668 40.2563L13.999 43.9203C14.7372 44.7578 16.021 44.7997 16.8109 44.008L23.3398 37.465C24.1 36.7021 24.1064 35.459 23.3527 34.6895C22.599 33.9188 21.3721 33.9122 20.6106 34.6751Z" fill="#92CA18"/>
<path d="M20.6106 47.0544L15.5323 52.1422L13.6602 50.021C12.9466 49.2123 11.721 49.1416 10.922 49.864C10.123 50.585 10.0545 51.8269 10.7668 52.6356L13.999 56.2996C14.7372 57.1358 16.021 57.1777 16.8109 56.386L23.3398 49.843C24.1 49.0814 24.1064 47.8383 23.3527 47.0675C22.599 46.2967 21.3721 46.2915 20.6106 47.0544Z" fill="#92CA18"/>
<path d="M28.946 42.3932H34.334C35.405 42.3932 36.2733 41.5144 36.2733 40.4303C36.2733 39.3463 35.405 38.4674 34.334 38.4674H28.8913C27.7904 38.4674 26.9029 39.3961 26.9541 40.5232C27.0023 41.5798 27.901 42.3932 28.946 42.3932Z" fill="#92CA18"/>
<path d="M60.1185 43.8788C62.213 41.685 62.8637 38.4121 62.0504 34.1458C61.9003 33.3583 61.2917 32.7423 60.5137 32.5904C57.0158 31.9069 54.1934 32.2441 52.0955 33.5903V13.9077C52.0955 11.3821 50.0644 9.32766 47.5705 9.32766H40.5839C39.7824 7.03107 37.6168 5.38094 35.0777 5.38094H32.2451C31.7847 2.33846 29.1809 0 26.047 0C22.9144 0 20.3106 2.33846 19.8491 5.38094H17.0178C14.4786 5.38094 12.3118 7.03107 11.5115 9.32766H4.52497C2.02977 9.32766 0 11.3821 0 13.9077V62.4199C0 64.9455 2.02977 67 4.52497 67H56.4194C57.0774 67 59.2599 66.473 60.8233 64.5164C67.6378 55.9907 65.1753 47.2506 60.1185 43.8788ZM58.4446 36.2401C58.6839 38.5117 58.295 40.1768 57.2834 41.2002C56.0397 42.4582 53.8511 42.7363 52.1049 42.6575C51.8812 37.62 54.1361 35.775 58.4446 36.2401ZM16.7295 9.32766C16.9428 9.29756 16.586 9.30672 21.716 9.30672C22.7877 9.30672 23.6552 8.42865 23.6552 7.34383V6.34668C23.6552 5.01191 24.7283 3.92578 26.047 3.92578C27.3657 3.92578 28.4388 5.01191 28.4388 6.34668V7.34383C28.4388 8.42865 29.3076 9.30672 30.3781 9.30672C35.5068 9.30672 35.1551 9.29756 35.3646 9.32766C36.3084 9.46898 37.0362 10.296 37.0362 11.2905C37.0362 12.2851 36.3084 13.1121 35.3646 13.2534C35.137 13.2848 16.9777 13.2875 16.7295 13.2534C15.7857 13.1121 15.0578 12.2851 15.0578 11.2905C15.0578 10.296 15.7857 9.46898 16.7295 9.32766ZM28.8913 54.7712H35.3452C35.5563 57.54 36.5967 60.3777 38.4238 63.0742H4.52497C4.16814 63.0742 3.87854 62.7811 3.87854 62.4199V13.9077C3.87854 13.5466 4.16814 13.2534 4.52497 13.2534H11.5115C12.3118 15.55 14.4786 17.2002 17.0178 17.2002H35.0776C37.6167 17.2002 39.7822 15.55 40.5838 13.2534H47.5704C47.9259 13.2534 48.2168 13.5466 48.2168 13.9077V43.2732C46.8369 42.5794 45.3323 42.3041 43.8021 42.5001C40.025 42.9839 36.6648 46.2159 35.6215 50.8454H28.8913C27.8208 50.8454 26.952 51.7248 26.952 52.8083C26.952 53.8931 27.8208 54.7712 28.8913 54.7712ZM57.808 62.0475C57.406 62.5506 56.8315 62.9189 56.2136 63.0742C55.0556 63.0742 45.4929 63.0742 44.275 63.0742C43.5639 62.9432 42.923 62.5733 42.5028 62.0474C36.1537 54.1037 40.1781 46.9215 44.2891 46.3948C45.8791 46.1914 47.3672 46.9754 48.5933 48.6625C49.3678 49.7285 50.9437 49.7279 51.7178 48.6625C52.9437 46.9752 54.4316 46.1913 56.022 46.3948C60.1314 46.9213 64.1586 54.1017 57.808 62.0475Z" fill="#92CA18"/>
</svg>
