<svg width="56" height="66" viewBox="0 0 56 66" fill="none" xmlns="http://www.w3.org/2000/svg">
<path d="M54.2356 44.7182C53.4473 44.3407 52.5335 44.3195 51.7289 44.6601C51.6925 44.6756 51.6569 44.6919 51.6217 44.7093C45.9746 47.0353 39.769 47.0148 34.1324 44.6482C28.4541 42.264 24.0328 37.7838 21.6831 32.0333C19.2257 26.0191 19.374 19.1861 22.0855 13.2967C22.4375 12.5434 22.4786 11.6964 22.2012 10.9119C21.9238 10.1274 21.3613 9.49923 20.618 9.14332C19.8296 8.76562 18.9157 8.7441 18.1217 9.08041C10.9067 12.0807 5.27775 17.7455 2.27164 25.0314C-0.734468 32.3173 -0.757749 40.352 2.206 47.6556C5.16975 54.9592 10.7658 60.6574 17.9633 63.7003C21.589 65.2334 25.4022 66 29.2164 66C32.9741 66 36.7326 65.2557 40.3133 63.7668C47.1364 60.9297 52.603 55.6374 55.7071 48.8645C56.4282 47.3112 55.7692 45.4525 54.2356 44.7182ZM38.8633 60.1933C25.9154 65.5774 11.0549 59.2943 5.73624 46.1879C0.654984 33.6662 6.09397 19.3764 17.8898 13.4271C15.4571 19.8768 15.5344 27.0933 18.1565 33.5101C20.8958 40.2142 26.0502 45.4371 32.6701 48.2169C38.6957 50.7468 45.2793 50.9769 51.407 48.907C48.6182 53.9947 44.222 57.965 38.8633 60.1933Z" fill="#92CA18"/>
<path d="M54.0916 8.28519H50.9367L55.4997 3.23542C56.0102 2.67055 56.1429 1.85354 55.8378 1.15294C55.533 0.452203 54.8479 0 54.0916 0H46.605C45.5511 0 44.6967 0.864832 44.6967 1.93166C44.6967 2.99849 45.5511 3.86332 46.605 3.86332H49.7599L45.197 8.91309C44.6864 9.47796 44.5538 10.295 44.8588 10.9956C45.1636 11.6963 45.8487 12.1485 46.6051 12.1485H54.0918C55.1456 12.1485 56 11.2837 56 10.2169C56 9.15002 55.1455 8.28519 54.0916 8.28519Z" fill="#92CA18"/>
<path d="M30.7586 14.379C31.0634 15.0797 31.7485 15.5319 32.5049 15.5319H38.4886C39.5425 15.5319 40.3968 14.6671 40.3968 13.6003C40.3968 12.5334 39.5425 11.6686 38.4886 11.6686H36.8366L39.8968 8.28197C40.4073 7.7171 40.54 6.90009 40.2349 6.19949C39.9301 5.49875 39.245 5.04655 38.4886 5.04655H32.5049C31.451 5.04655 30.5966 5.91138 30.5966 6.97821C30.5966 8.04504 31.451 8.90987 32.5049 8.90987H34.1569L31.0967 12.2965C30.5862 12.8614 30.4535 13.6784 30.7586 14.379Z" fill="#92CA18"/>
<path d="M43.0985 25.7443C43.4033 26.445 44.0884 26.8972 44.8448 26.8972H50.8285C51.8824 26.8972 52.7368 26.0324 52.7368 24.9655C52.7368 23.8987 51.8824 23.0339 50.8285 23.0339H49.1765L52.2367 19.6472C52.7472 19.0824 52.8799 18.2654 52.5748 17.5648C52.27 16.864 51.585 16.4118 50.8285 16.4118H44.8448C43.791 16.4118 42.9366 17.2767 42.9366 18.3435C42.9366 19.4103 43.791 20.2751 44.8448 20.2751H46.4968L43.4367 23.6618C42.9262 24.2266 42.7935 25.0436 43.0985 25.7443Z" fill="#92CA18"/>
</svg>
