<svg width="54" height="57" viewBox="0 0 54 57" fill="none" xmlns="http://www.w3.org/2000/svg">
<path d="M52.2612 1.73238L52.2615 1.73262C53.0552 2.52354 53.5017 3.59713 53.5 4.71696M52.2612 1.73238L53 52.2838M52.2612 1.73238C51.4671 0.94217 50.3901 0.498458 49.2676 0.500004M52.2612 1.73238L49.2679 1M53.5 4.71696L53 4.71622H53.5V4.71696ZM53.5 4.71696V52.283M53.5 52.283L53 52.2838M53.5 52.283V52.2838H53M53.5 52.283C53.5017 53.4029 53.0552 54.4765 52.2615 55.2674L52.2612 55.2676C51.467 56.0579 50.3899 56.5016 49.2672 56.5M53 52.2838L4.73206 56M49.2672 56.5L49.2679 56V56.5H49.2672ZM49.2672 56.5H4.73279M4.73279 56.5L4.73206 56M4.73279 56.5H4.73206V56M4.73279 56.5C3.61013 56.5016 2.53297 56.0579 1.73876 55.2676L1.73851 55.2674C0.944866 54.4766 0.498449 53.4031 0.500004 52.2834M4.73206 56L1 4.71622M0.500004 52.2834C0.500004 52.2833 0.500004 52.2832 0.500005 52.283L1 52.2838H0.500004V52.2834ZM0.500004 52.2834V4.71658M0.500004 4.71658C0.500004 4.71671 0.500004 4.71683 0.500005 4.71696L1 4.71622M0.500004 4.71658V4.71622H1M0.500004 4.71658C0.498449 3.59689 0.944866 2.52345 1.73851 1.73262L1.73876 1.73238C2.53288 0.942171 3.60989 0.498458 4.73242 0.500004M1 4.71622L49.2679 1M4.73242 0.500004C4.73254 0.500004 4.73267 0.500004 4.73279 0.500005L4.73206 1V0.500004H4.73242ZM4.73242 0.500004H49.2676M49.2676 0.500004C49.2675 0.500004 49.2673 0.500004 49.2672 0.500005L49.2679 1M49.2676 0.500004H49.2679V1M50.0246 4.7288V46.4572H3.98804V4.7288H3.98809L3.988 4.72216C3.9854 4.5269 4.06082 4.33866 4.19849 4.19854C4.33638 4.05869 4.52467 3.97897 4.72108 3.97748H49.2892C49.7007 3.98419 50.0272 4.31928 50.0246 4.7256V4.7288ZM3.98804 49.9347H50.012L50.0119 52.2712L50.012 52.2778C50.0146 52.4732 49.9391 52.6616 49.8012 52.8017C49.6633 52.9414 49.4751 53.0211 49.2788 53.0225H4.72289C4.31134 53.0158 3.98514 52.6807 3.98804 52.2748V52.2712V49.9347ZM15.6532 24.8333H15.6546L38.3332 24.8333L38.3346 24.8333C39.2938 24.8306 40.0745 24.0563 40.0772 23.096V23.0946C40.0772 15.8964 34.2173 10.0649 26.9937 10.0649C19.77 10.0649 13.9106 15.8965 13.9106 23.0946L13.9106 23.096C13.9134 24.0563 14.694 24.8306 15.6532 24.8333ZM27 13.5361C31.6533 13.5426 35.6025 16.8567 36.443 21.3559H28.744V17.768C28.744 16.8057 27.9613 16.0293 27 16.0293C26.0387 16.0293 25.256 16.8057 25.256 17.768V21.3559H17.557C18.3975 16.8567 22.3466 13.5426 27 13.5361Z" fill="#92CA18" stroke="#92CA18"/>
</svg>
