<svg width="30" height="24" viewBox="0 0 30 24" fill="none" xmlns="http://www.w3.org/2000/svg">
<path d="M28.9932 3.24534L26.8903 3.24524V1.09212C26.8903 0.599175 26.5257 0.180361 26.0327 0.107429C25.9467 0.0946405 23.898 -0.199688 21.431 0.244302C18.6808 0.739246 16.4875 1.95982 14.9999 3.80502C13.5123 1.95982 11.319 0.739246 8.56886 0.244302C6.1018 -0.199588 4.05312 0.0946405 3.96716 0.107429C3.47423 0.180461 3.10959 0.599275 3.10959 1.09212V3.24524H1.00666C0.450807 3.24524 0 3.69112 0 4.24102V23.0042C0 23.3266 0.157777 23.629 0.423534 23.8159C0.689291 24.0027 1.03 24.0507 1.33777 23.9446C1.41333 23.9187 8.95704 21.3722 14.5822 23.9101C14.8476 24.0299 15.1524 24.0299 15.4178 23.9101C21.0272 21.3794 28.5871 23.9189 28.6622 23.9446C28.7701 23.9817 28.8818 24 28.9931 24C29.1995 24 29.4037 23.9373 29.5765 23.816C29.8422 23.6291 30 23.3267 30 23.0043V4.24112C29.9999 3.69122 29.5492 3.24534 28.9932 3.24534ZM2.01343 21.6719V5.2367H3.10959V18.4971C3.10959 18.7864 3.23756 19.0612 3.45888 19.2503C3.68019 19.4394 3.97453 19.5242 4.26382 19.482C4.31938 19.474 8.6927 18.8801 11.8878 21.0484C7.95199 20.3827 4.01281 21.1527 2.01343 21.6719ZM13.9933 20.1504C12.586 18.8928 10.753 18.0424 8.56886 17.6494C7.51775 17.4601 6.5426 17.405 5.76281 17.405C5.53129 17.405 5.31695 17.4099 5.12311 17.4176V2.00648H5.12301C7.05785 1.92016 11.7646 2.12477 13.9933 5.86162V20.1504ZM16.0066 5.86172C18.2273 2.14085 22.9414 1.92695 24.8769 2.00898V17.4176C24.0301 17.3838 22.7941 17.404 21.431 17.6494C19.2469 18.0424 17.4139 18.8927 16.0066 20.1504V5.86172ZM18.1087 21.049C21.3043 18.8794 25.6799 19.4739 25.7345 19.4819C26.0245 19.5249 26.3186 19.4406 26.5406 19.2516C26.7626 19.0624 26.8903 18.787 26.8903 18.4971V5.2368H27.9865V21.6719C25.9865 21.1525 22.0457 20.3822 18.1087 21.049Z" fill="#92CA18"/>
</svg>
