<svg width="12" height="10" viewBox="0 0 12 10" fill="none" xmlns="http://www.w3.org/2000/svg">
<path d="M10.767 2.49385C11.255 2.13846 11.6655 1.69487 12 1.1841V1.18359C11.5535 1.3841 11.0785 1.51744 10.5825 1.58205C11.0925 1.26974 11.482 0.778974 11.665 0.187692C11.1895 0.478462 10.6645 0.68359 10.105 0.798462C9.6535 0.305128 9.01 0 8.308 0C6.946 0 5.8495 1.13385 5.8495 2.52359C5.8495 2.72359 5.866 2.9159 5.9065 3.09897C3.8615 2.99641 2.0515 1.99128 0.8355 0.459487C0.6235 0.837436 0.4985 1.26974 0.4985 1.73487C0.4985 2.60872 0.937 3.38308 1.5915 3.8318C1.196 3.8241 0.8085 3.70615 0.48 3.52103V3.54872C0.48 4.77487 1.3325 5.79333 2.451 6.02821C2.2505 6.08462 2.0325 6.11128 1.806 6.11128C1.6485 6.11128 1.4895 6.10205 1.3405 6.06821C1.659 7.06718 2.564 7.80205 3.639 7.82615C2.802 8.49744 1.739 8.90205 0.5885 8.90205C0.387 8.90205 0.1935 8.89282 0 8.86769C1.09 9.58821 2.381 10 3.774 10C8.1155 10 10.945 6.28513 10.767 2.49385Z" fill="white"/>
</svg>
